<svg height="472pt" viewBox="-44 0 472 472" width="472pt" xmlns="http://www.w3.org/2000/svg"><path d="m90.015625 464c-7.539063 0-14.710937-3.269531-19.652344-8.964844-4.941406-5.699218-7.167969-13.257812-6.097656-20.722656l18.734375-130.808594h33v134.488282c0 14.355468-11.628906 25.996093-25.984375 26.007812zm0 0" fill="#e94f4f"/><path d="m336 288h-32c-4.417969 0-8-3.582031-8-8v-56h-64v56c0 4.417969-3.582031 8-8 8h-39.03125c-19.859375 0-37.671875 12.230469-44.800781 30.769531l-24.800781 48.566407.160156 69.664062 52.472656-69h18.3125c-13.5625 22.777344-11.285156 51.632812 5.6875 72v32h192v-136c0-26.507812-21.492188-48-48-48zm0 0" fill="#fec9a3"/><path d="m88 224h32v128c0 8.835938-7.164062 16-16 16s-16-7.164062-16-16zm0 0" fill="#ffb531"/><path d="m115.496094 437 52.503906-69h18.3125c-13.5625 22.777344-11.285156 51.632812 5.6875 72v32h192v-136c0-26.507812-21.492188-48-48-48h-24l-48 128-48-128h-31.03125c-19.859375 0-37.671875 12.230469-44.800781 30.769531l-24.800781 48.566407zm0 0" fill="#e94f4f"/><path d="m258.863281 472h125.136719v-136c-.054688-4.078125-.640625-8.128906-1.734375-12.054688-19.34375 64.050782-63.882813 117.488282-123.402344 148.054688zm0 0" fill="#e04646"/><path d="m136 326.921875-20.664062 40.414063.160156 69.664062 20.503906-26.9375zm0 0" fill="#e04646"/><path d="m296 256.441406v-32.441406h-64v32.441406c20.140625 10.089844 43.859375 10.089844 64 0zm0 0" fill="#fec093"/><path d="m344 472h-16v-32c0-1.871094.652344-3.683594 1.847656-5.121094 14.785156-17.761718 16.773438-42.914062 4.96875-62.78125l13.742188-8.195312c14.71875 24.769531 12.914062 55.996094-4.558594 78.90625zm0 0" fill="#cf3a3a"/><path d="m200 288-16 40 32 8-8 24 56 56-48-128zm0 0" fill="#f26666"/><path d="m328 288 16 40-32 8 8 24-56 56 48-128zm0 0" fill="#f26666"/><path d="m234 336 30 80 30-80zm0 0" fill="#803f37"/><path d="m256 440h16v16h-16zm0 0" fill="#cf3a3a"/><path d="m91.199219 296h41.601562c6.183594 0 11.199219 5.015625 11.199219 11.199219v25.601562c0 6.183594-5.015625 11.199219-11.199219 11.199219h-41.601562c-6.183594 0-11.199219-5.015625-11.199219-11.199219v-25.601562c0-6.183594 5.015625-11.199219 11.199219-11.199219zm0 0" fill="#fec9a3"/><path d="m344 184.007812h-8v-48h8c13.253906 0 24 10.746094 24 24 0 13.253907-10.746094 24-24 24zm0 0" fill="#feb784"/><path d="m360 40c0 22.089844-17.910156 40-40 40s-40-17.910156-40-40 17.910156-40 40-40 40 17.910156 40 40zm0 0" fill="#773730"/><path d="m264 248c-39.765625 0-72-32.234375-72-72v-92.910156c24-32 112-40 144 0v92.910156c0 39.765625-32.234375 72-72 72zm0 0" fill="#fec9a3"/><path d="m249.601562 56.96875c20.820313 1.359375 40.3125 10.714844 54.398438 26.109375v92.921875c-.023438 33.582031-23.257812 62.6875-56 70.152344 21.359375 4.941406 43.808594-.148438 60.949219-13.8125 17.144531-13.667969 27.105469-34.414063 27.050781-56.339844v-92.921875c-18.121094-22.644531-54.183594-29.878906-86.398438-26.109375zm0 0" fill="#fec093"/><path d="m264 208c-13.253906 0-24-10.746094-24-24h16c0 4.417969 3.582031 8 8 8s8-3.582031 8-8h16c0 13.253906-10.746094 24-24 24zm0 0" fill="#f7a468"/><path d="m268.191406 32h-8.382812c-45.226563-1.027344-82.734375 34.777344-83.808594 80v24h8.382812c42.246094.144531 82.664063-17.234375 111.617188-48 5.21875 26.082031 18.039062 50.039062 36.847656 68.847656l3.152344 3.152344 16-24v-24c-1.074219-45.222656-38.582031-81.027344-83.808594-80zm0 0" fill="#803f37"/><path d="m184 136h8v48h-8c-13.253906 0-24-10.746094-24-24s10.746094-24 24-24zm0 0" fill="#feb784"/><path d="m212 128h20c11.046875 0 20 8.953125 20 20s-8.953125 20-20 20h-20c-11.046875 0-20-8.953125-20-20s8.953125-20 20-20zm0 0" fill="#4db7e5"/><path d="m296 128h20c11.046875 0 20 8.953125 20 20s-8.953125 20-20 20h-20c-11.046875 0-20-8.953125-20-20s8.953125-20 20-20zm0 0" fill="#4db7e5"/><path d="m316 120h-20c-10.777344.039062-20.574219 6.261719-25.191406 16h-13.601563c-4.621093-9.742188-14.425781-15.964844-25.207031-16h-20c-15.464844 0-28 12.535156-28 28s12.535156 28 28 28h20c13.878906-.039062 25.628906-10.257812 27.59375-24h8.796875c1.964844 13.746094 13.722656 23.96875 27.609375 24h20c15.464844 0 28-12.535156 28-28s-12.535156-28-28-28zm-84 40h-20c-6.628906 0-12-5.371094-12-12s5.371094-12 12-12h20c6.628906 0 12 5.371094 12 12s-5.371094 12-12 12zm84 0h-20c-6.628906 0-12-5.371094-12-12s5.371094-12 12-12h20c6.628906 0 12 5.371094 12 12s-5.371094 12-12 12zm0 0" fill="#e94f4f"/><path d="m208 152c0 57.4375-46.5625 104-104 104s-104-46.5625-104-104 46.5625-104 104-104 104 46.5625 104 104zm0 0" fill="#ffb531"/><path d="m176 152c0 39.765625-32.234375 72-72 72s-72-32.234375-72-72 32.234375-72 72-72 72 32.234375 72 72zm0 0" fill="#48add9"/><path d="m160 152c0 30.929688-25.070312 56-56 56s-56-25.070312-56-56 25.070312-56 56-56 56 25.070312 56 56zm0 0" fill="#4db7e5"/><path d="m32 152c34.824219-42.664062 109.175781-42.664062 144 0-34.824219 42.671875-109.175781 42.671875-144 0zm0 0" fill="#e0e0de"/><path d="m138.105469 125.945312c-16.304688 23.636719-39.082031 42.070313-65.601563 53.085938 35.894532 11.640625 79.257813 2.664062 103.496094-27.03125-10.011719-11.988281-23.121094-21-37.894531-26.054688zm0 0" fill="#d6d6d4"/><path d="m136 152c0 17.671875-14.328125 32-32 32s-32-14.328125-32-32 14.328125-32 32-32 32 14.328125 32 32zm0 0" fill="#348fd9"/><path d="m122.839844 126.257812c-7.496094 20.640626-22.71875 37.566407-42.457032 47.199219 8.175782 9.039063 20.785157 12.632813 32.5 9.261719 11.710938-3.371094 20.480469-13.121094 22.597657-25.125 2.117187-12-2.789063-24.164062-12.640625-31.335938zm0 0" fill="#3086cd"/><path d="m96 144h16v16h-16zm0 0" fill="#3d4d63"/></svg>