<?xml version="1.0" standalone="no"?>
<!DOCTYPE svg PUBLIC "-//W3C//DTD SVG 20010904//EN"
 "http://www.w3.org/TR/2001/REC-SVG-20010904/DTD/svg10.dtd">
<svg version="1.0" xmlns="http://www.w3.org/2000/svg"
 width="256.000000pt" height="256.000000pt" viewBox="0 0 256.000000 256.000000"
 preserveAspectRatio="xMidYMid meet">
<metadata>
Created by potrace 1.15, written by Peter Selinger 2001-2017
</metadata>
<g transform="translate(0.000000,256.000000) scale(0.100000,-0.100000)"
fill="#ffffff" stroke="none">
<path d="M1392 2451 c-190 -47 -351 -177 -433 -349 l-44 -91 -35 7 c-19 4 -75
7 -125 7 -80 -1 -98 -4 -157 -32 -118 -55 -201 -151 -234 -270 -17 -61 -18
-63 -50 -63 -47 0 -132 -34 -177 -71 -192 -159 -156 -464 68 -570 48 -23 74
-29 129 -29 l69 0 66 -63 c114 -107 237 -157 391 -157 128 0 250 42 346 119
l48 38 48 -33 c86 -59 149 -76 263 -72 87 3 108 7 166 34 65 31 126 82 166
138 l21 30 52 -17 c74 -24 210 -23 283 2 215 74 339 305 282 524 -21 81 -50
132 -107 194 -56 58 -111 94 -174 113 -41 12 -41 13 -47 69 -27 250 -254 492
-512 546 -93 19 -213 18 -303 -4z"/>
</g>
</svg>
