<?xml version="1.0" standalone="no"?>
<!DOCTYPE svg PUBLIC "-//W3C//DTD SVG 20010904//EN"
 "http://www.w3.org/TR/2001/REC-SVG-20010904/DTD/svg10.dtd">
<svg version="1.0" xmlns="http://www.w3.org/2000/svg"
 width="840.000000pt" height="396.000000pt" viewBox="0 0 840.000000 396.000000"
 preserveAspectRatio="xMidYMid meet">
<metadata>
Created by potrace 1.15, written by Peter Selinger 2001-2017
</metadata>
<g transform="translate(0.000000,396.000000) scale(0.100000,-0.100000)"
fill="#ffffff" stroke="none">
<path d="M4219 3496 c-2 -2 -22 -7 -44 -10 -22 -3 -47 -7 -55 -9 -135 -32
-165 -41 -220 -66 -30 -14 -63 -26 -73 -28 -9 -2 -34 -13 -55 -26 -20 -12 -50
-29 -67 -37 -122 -60 -341 -254 -414 -365 -14 -22 -28 -42 -31 -45 -19 -19
-111 -200 -102 -200 4 0 2 -4 -4 -8 -5 -4 -18 -28 -28 -54 -10 -26 -22 -50
-27 -54 -5 -3 -36 4 -70 16 -75 27 -197 30 -284 7 -67 -18 -159 -73 -206 -124
-67 -71 -115 -178 -121 -266 -3 -48 -16 -59 -64 -51 -137 21 -348 11 -484 -25
-119 -30 -259 -95 -314 -144 -12 -10 -32 -25 -46 -32 -61 -32 -173 -175 -216
-275 -23 -55 -28 -81 -31 -176 -3 -131 14 -206 70 -305 50 -89 169 -208 257
-258 188 -107 334 -148 545 -155 183 -5 401 36 523 100 15 8 32 14 38 14 16 0
37 -28 41 -52 6 -38 71 -133 135 -197 67 -67 182 -142 222 -145 13 0 22 -4 19
-8 -2 -5 -2 -8 0 -8 3 0 40 -9 83 -20 201 -51 422 -3 580 126 27 22 59 49 72
62 15 13 29 19 36 14 13 -10 93 -42 121 -49 41 -9 50 -12 50 -14 0 -1 9 -3 20
-5 148 -29 304 -26 430 8 22 5 49 12 60 14 11 2 29 8 40 13 83 39 136 66 173
87 l42 26 58 -49 c90 -74 124 -98 139 -97 7 1 11 -2 8 -6 -3 -5 25 -23 63 -40
141 -68 250 -102 334 -104 21 -1 38 -4 38 -9 0 -9 309 -2 360 8 19 3 53 11 75
17 22 7 42 12 45 13 3 0 35 11 73 24 44 15 65 27 60 34 -3 7 -3 9 2 5 14 -13
150 59 201 107 7 5 30 25 53 43 22 19 38 39 34 44 -3 6 -2 8 4 5 9 -6 83 63
83 78 0 4 16 23 35 41 31 31 39 34 97 34 75 1 131 8 178 22 49 15 161 78 167
94 3 8 10 14 17 14 16 0 86 75 117 125 58 93 72 143 75 265 3 125 -7 167 -59
268 -32 60 -93 132 -110 129 -7 -1 -11 3 -10 10 2 7 -21 28 -50 46 -120 79
-191 97 -358 93 l-127 -4 -50 51 c-56 58 -59 60 -127 109 -55 38 -110 69 -167
92 -21 9 -53 22 -70 30 -36 15 -144 48 -168 51 -23 3 -62 15 -87 27 -18 9 -23
20 -23 48 0 42 -38 200 -51 215 -5 5 -9 17 -9 27 0 10 -13 47 -30 83 -16 36
-30 70 -30 75 0 6 -4 10 -9 10 -5 0 -14 12 -20 28 -14 35 -48 90 -67 110 -9 8
-23 27 -32 41 -33 51 -171 193 -224 229 -13 9 -32 25 -43 35 -17 16 -64 40
-72 38 -2 -1 -12 8 -22 18 -23 23 -187 104 -254 126 -27 8 -53 12 -59 9 -6 -4
-8 -2 -4 4 8 13 -12 19 -124 37 -19 4 -51 10 -71 14 -35 8 -383 14 -390 7z"/>
</g>
</svg>
