<?xml version="1.0" standalone="no"?>
<!DOCTYPE svg PUBLIC "-//W3C//DTD SVG 20010904//EN"
 "http://www.w3.org/TR/2001/REC-SVG-20010904/DTD/svg10.dtd">
<svg version="1.0" xmlns="http://www.w3.org/2000/svg"
 width="1776.000000pt" height="581.000000pt" viewBox="0 0 1776.000000 581.000000"
 preserveAspectRatio="xMidYMid meet">
<metadata>
Created by potrace 1.15, written by Peter Selinger 2001-2017
</metadata>
<g transform="translate(0.000000,581.000000) scale(0.100000,-0.100000)"
fill="#009f9d" stroke="none">
<path d="M16815 4769 c-519 -106 -773 -154 -1216 -229 -473 -81 -1122 -199
-1496 -271 -178 -35 -263 -55 -267 -65 -7 -19 2 -40 23 -50 10 -5 140 -119
290 -254 l273 -245 -5 -70 c-3 -38 -17 -121 -31 -183 -14 -62 -33 -172 -42
-245 -8 -73 -22 -146 -31 -164 -20 -44 -14 -68 17 -66 14 1 149 44 300 97 151
53 277 96 280 96 3 0 34 -46 70 -102 35 -57 122 -189 192 -295 70 -106 125
-198 122 -206 -6 -17 21 -41 40 -34 7 3 80 92 162 199 306 397 829 1040 1201
1476 238 278 482 577 512 626 19 32 8 56 -26 55 -15 -1 -181 -32 -368 -70z
m-25 -98 c-69 -26 -186 -76 -260 -111 -215 -99 -382 -168 -787 -325 -532 -207
-846 -333 -1081 -436 l-203 -89 -103 93 c-57 50 -171 153 -254 227 -82 74
-147 138 -143 141 13 14 1041 202 1786 329 198 33 536 96 750 139 215 43 397
79 405 80 8 0 -41 -21 -110 -48z m209 -48 c-38 -50 -176 -215 -379 -453 -340
-398 -885 -1068 -1157 -1422 l-121 -157 -135 202 c-74 111 -163 247 -199 302
-36 55 -104 143 -152 195 -79 87 -85 96 -69 108 71 53 244 150 523 292 447
228 1337 722 1585 879 125 78 122 77 104 54z m-264 -74 c-258 -153 -1205 -674
-1425 -784 -443 -222 -565 -298 -667 -417 -89 -106 -243 -270 -243 -260 1 32
35 238 55 334 14 65 25 142 25 172 l0 53 173 76 c246 108 533 225 912 372 451
174 698 274 873 352 182 82 394 171 407 172 6 0 -44 -31 -110 -70z m-1877
-1374 c-4 -4 -388 -135 -395 -135 -3 0 21 28 52 63 31 34 91 101 132 148 l76
86 69 -79 c39 -44 68 -81 66 -83z"/>
<path d="M14105 2458 c-16 -29 -41 -72 -58 -96 -16 -24 -27 -45 -25 -46 19
-15 98 -66 102 -66 4 0 90 139 115 187 11 21 8 24 -38 48 -28 14 -54 25 -59
25 -5 0 -22 -24 -37 -52z"/>
<path d="M4382 2149 c-128 -8 -292 -26 -299 -32 -2 -2 0 -30 3 -62 l7 -57 56
6 c147 16 262 26 325 26 58 0 67 2 62 16 -3 9 -6 38 -6 65 0 33 -4 49 -12 48
-7 -1 -68 -5 -136 -10z"/>
<path d="M4788 2097 c-2 -34 -4 -63 -3 -63 0 -1 61 -3 135 -5 l135 -4 3 57 c4
68 11 64 -155 72 l-111 5 -4 -62z"/>
<path d="M13767 2033 c-99 -95 -99 -98 -37 -158 l28 -27 96 92 c53 51 96 98
96 105 0 12 -73 75 -87 75 -4 0 -48 -39 -96 -87z"/>
<path d="M5485 2035 c-4 -31 -5 -58 -3 -60 2 -3 61 -15 131 -28 141 -26 132
-29 143 51 l6 49 -124 21 c-68 12 -129 22 -135 22 -7 0 -15 -25 -18 -55z"/>
<path d="M3695 2048 c-66 -16 -124 -33 -129 -38 -11 -11 16 -115 30 -115 7 0
244 57 251 60 5 2 -21 125 -26 124 -3 0 -60 -14 -126 -31z"/>
<path d="M6001 1934 c-7 -31 -9 -60 -4 -64 4 -4 42 -15 83 -25 41 -10 133 -35
204 -56 71 -21 130 -38 131 -36 4 5 35 101 35 108 0 11 -396 129 -431 129 -3
0 -11 -25 -18 -56z"/>
<path d="M3018 1850 c-64 -21 -121 -41 -126 -44 -11 -6 12 -91 28 -109 7 -8
235 58 252 72 8 7 -22 122 -31 120 -3 -1 -58 -18 -123 -39z"/>
<path d="M6669 1723 c-12 -31 -19 -58 -13 -60 5 -2 61 -25 124 -53 63 -27 115
-48 116 -47 1 1 13 26 28 54 l26 53 -38 19 c-39 20 -207 91 -215 91 -3 0 -15
-26 -28 -57z"/>
<path d="M8225 1723 c-22 -1 -69 -6 -104 -9 l-63 -6 4 -54 c3 -30 7 -56 10
-59 7 -7 244 6 257 14 6 4 8 29 4 64 -6 64 3 59 -108 50z"/>
<path d="M8590 1672 l0 -59 168 -7 c92 -4 190 -9 218 -13 l51 -5 8 57 c3 31 4
59 1 63 -9 8 -200 21 -333 21 l-113 1 0 -58z"/>
<path d="M13215 1669 c-55 -27 -106 -49 -112 -49 -17 0 -16 -17 3 -73 9 -26
21 -47 27 -47 20 0 247 102 247 112 0 15 -50 108 -58 107 -4 0 -52 -23 -107
-50z"/>
<path d="M2532 1660 c-56 -28 -102 -56 -102 -62 0 -14 49 -98 57 -98 5 0 188
87 201 96 4 3 -42 114 -48 114 -3 0 -51 -23 -108 -50z"/>
<path d="M9286 1634 c-4 -31 -4 -59 -2 -61 8 -8 257 -36 263 -29 7 7 18 116
12 116 -2 0 -58 7 -124 15 -65 8 -124 15 -131 15 -6 0 -14 -24 -18 -56z"/>
<path d="M7480 1599 c-58 -17 -108 -34 -113 -38 -9 -9 21 -111 33 -111 6 0 64
14 130 32 81 21 120 36 120 45 0 8 -5 34 -11 59 -14 53 -15 54 -159 13z"/>
<path d="M9986 1578 c-8 -32 -7 -98 2 -98 4 0 52 -7 107 -15 158 -23 151 -25
159 41 4 31 5 58 4 60 -4 3 -227 34 -249 34 -9 0 -19 -10 -23 -22z"/>
<path d="M10506 1499 c-10 -50 -7 -89 7 -89 6 0 104 -11 217 -24 154 -18 207
-22 212 -13 4 7 8 31 8 55 0 23 0 45 0 50 1 7 -339 50 -406 51 -27 1 -32 -3
-38 -30z"/>
<path d="M12745 1510 c-38 -11 -126 -29 -195 -41 -69 -11 -126 -22 -128 -24
-2 -2 -1 -28 3 -59 6 -44 11 -56 25 -56 62 0 430 76 430 88 0 4 -6 30 -13 57
-16 59 -23 61 -122 35z"/>
<path d="M7020 1424 c-101 -54 -177 -110 -244 -178 l-48 -50 43 -38 c24 -20
47 -38 51 -38 4 0 29 22 57 50 52 52 154 122 234 161 26 13 47 27 47 32 0 14
-42 107 -49 107 -3 0 -44 -21 -91 -46z"/>
<path d="M11205 1438 c-4 -14 -5 -42 -3 -64 l3 -39 130 -11 c72 -6 130 -10
131 -10 1 1 4 28 7 62 l6 61 -102 7 c-56 4 -116 9 -134 12 -28 5 -33 3 -38
-18z"/>
<path d="M7292 1404 c-18 -24 -32 -48 -32 -53 0 -5 21 -26 48 -47 26 -21 68
-58 94 -82 l47 -44 45 37 c38 31 44 40 36 55 -9 18 -166 156 -194 172 -8 5
-24 -9 -44 -38z"/>
<path d="M12018 1423 l-118 -4 0 -59 0 -60 141 0 142 0 -7 38 c-3 20 -6 49 -6
65 0 20 -5 26 -17 25 -10 -1 -71 -4 -135 -5z"/>
<path d="M7630 1009 c-24 -11 -45 -21 -46 -22 -2 -1 6 -27 16 -57 11 -30 19
-69 20 -87 0 -45 -27 -120 -61 -170 l-29 -42 44 -35 c23 -20 47 -36 52 -36 17
0 77 103 96 164 15 47 19 80 15 141 -5 81 -31 165 -51 165 -6 0 -31 -10 -56
-21z"/>
<path d="M6622 847 c3 -66 11 -96 36 -150 17 -37 34 -67 37 -67 4 0 27 14 51
32 30 21 43 38 40 48 -3 8 -14 40 -25 70 -11 30 -20 74 -21 96 l0 41 -46 7
c-81 11 -77 15 -72 -77z"/>
<path d="M7275 498 c-22 -5 -68 -7 -102 -5 l-62 5 -12 -55 c-9 -45 -8 -57 3
-64 18 -12 163 -11 218 2 73 16 71 12 51 71 -20 58 -29 63 -96 46z"/>
</g>
</svg>
