<?xml version="1.0" encoding="iso-8859-1"?>
<!-- Generator: Adobe Illustrator 19.0.0, SVG Export Plug-In . SVG Version: 6.00 Build 0)  -->
<svg version="1.1" id="Capa_1" xmlns="http://www.w3.org/2000/svg" xmlns:xlink="http://www.w3.org/1999/xlink" x="0px" y="0px"
	 viewBox="0 0 512 512" style="enable-background:new 0 0 512 512;" xml:space="preserve">
<path style="fill:#87CED9;" d="M450.207,406.069L512,344.276V70.621H0v308.966c0,14.627,11.855,26.483,26.483,26.483H450.207z"/>
<polygon style="fill:#7DC6D1;" points="101.517,406.069 450.207,406.069 512,344.276 512,70.621 436.966,70.621 "/>
<rect x="388.414" y="17.655" style="fill:#FDB62F;" width="61.793" height="282.483"/>
<polygon style="fill:#F7A500;" points="388.414,220.69 388.414,300.138 450.207,300.138 450.207,158.897 "/>
<g>
	<rect x="388.414" y="44.138" style="fill:#FA962A;" width="26.483" height="17.655"/>
	<rect x="388.414" y="79.448" style="fill:#FA962A;" width="26.483" height="17.655"/>
	<rect x="388.414" y="114.759" style="fill:#FA962A;" width="26.483" height="17.655"/>
	<rect x="388.414" y="150.069" style="fill:#FA962A;" width="26.483" height="17.655"/>
	<rect x="388.414" y="185.379" style="fill:#FA962A;" width="26.483" height="17.655"/>
	<rect x="388.414" y="220.69" style="fill:#FA962A;" width="26.483" height="17.655"/>
	<rect x="388.414" y="256" style="fill:#FA962A;" width="26.483" height="17.655"/>
</g>
<path style="fill:#4398D1;" d="M52.966,353.103H26.483C11.855,353.103,0,364.959,0,379.586l0,0V44.138
	c0-14.627,11.855-26.483,26.483-26.483h26.483V353.103z"/>
<path style="fill:#E8594A;" d="M105.931,238.345v256h256L105.931,238.345z M150.069,344.276L256,450.207H150.069V344.276z"/>
<polygon style="fill:#4398D1;" points="300.138,344.276 317.793,361.931 335.448,344.276 335.448,167.724 300.138,167.724 "/>
<g>
	<path style="fill:#F0E4D6;" d="M317.793,132.414c-9.754,0-17.655,7.901-17.655,17.655v17.655h35.31v-17.655
		C335.448,140.314,327.548,132.414,317.793,132.414z"/>
	<path style="fill:#F0E4D6;" d="M185.379,132.414c-14.627,0-26.483,11.855-26.483,26.483c0,14.627,11.855,26.483,26.483,26.483
		h8.828v-52.966H185.379z"/>
</g>
<rect x="194.207" y="132.414" style="fill:#E87D9C;" width="52.966" height="52.966"/>
<polygon style="fill:#4398D1;" points="450.207,344.276 450.207,406.069 512,344.276 "/>
<polygon style="fill:#D65245;" points="247.172,379.586 216.276,410.483 256,450.207 176.552,450.207 132.414,494.345 
	361.931,494.345 "/>
<rect x="194.207" y="167.724" style="fill:#DE7392;" width="52.966" height="17.655"/>
<polygon style="fill:#3F8FC4;" points="317.793,167.724 317.793,361.931 335.448,344.276 335.448,167.724 "/>
<rect x="300.138" y="158.897" style="fill:#3B86B8;" width="35.31" height="17.655"/>
<g>
</g>
<g>
</g>
<g>
</g>
<g>
</g>
<g>
</g>
<g>
</g>
<g>
</g>
<g>
</g>
<g>
</g>
<g>
</g>
<g>
</g>
<g>
</g>
<g>
</g>
<g>
</g>
<g>
</g>
</svg>
